<svg 
 xmlns="http://www.w3.org/2000/svg"
 xmlns:xlink="http://www.w3.org/1999/xlink"
 width="46px" height="46px">
<defs>
<linearGradient id="PSgrad_0" x1="0%" x2="100%" y1="0%" y2="0%">
  <stop offset="0%" stop-color="rgb(244,170,54)" stop-opacity="1" />
  <stop offset="100%" stop-color="rgb(243,115,53)" stop-opacity="1" />
</linearGradient>

</defs>
<path fill-rule="evenodd"  fill="rgb(255, 255, 255)"
 d="M45.156,17.225 C44.627,19.136 43.865,21.076 42.897,23.005 C44.102,25.406 44.984,27.810 45.492,30.126 C46.671,35.506 45.749,40.041 42.895,42.894 C40.838,44.950 37.956,46.000 34.513,46.000 C32.737,46.000 30.811,45.721 28.773,45.156 C26.863,44.627 24.925,43.866 22.996,42.899 C19.790,44.511 16.614,45.524 13.641,45.867 C12.899,45.952 12.179,45.995 11.482,45.995 C8.016,45.995 5.146,44.940 3.100,42.894 C1.268,41.063 0.206,38.489 0.028,35.452 C-0.132,32.720 0.422,29.583 1.629,26.353 C0.638,25.569 0.000,24.358 0.000,23.000 C0.000,21.641 0.638,20.429 1.629,19.646 C0.422,16.416 -0.132,13.280 0.028,10.547 C0.206,7.510 1.268,4.936 3.100,3.105 C5.954,0.251 10.489,-0.671 15.870,0.507 C18.186,1.016 20.591,1.897 22.992,3.102 C24.921,2.134 26.861,1.372 28.773,0.843 C34.762,-0.815 39.778,-0.012 42.895,3.105 C46.012,6.221 46.815,11.236 45.156,17.225 ZM29.133,43.855 C34.634,45.378 39.182,44.698 41.940,41.940 C45.590,38.290 45.454,31.598 42.119,24.477 C40.179,27.953 37.583,31.363 34.472,34.474 C34.089,34.856 33.696,35.237 33.298,35.609 C33.700,36.262 33.933,37.028 33.933,37.849 C33.933,40.206 32.015,42.124 29.658,42.124 C28.463,42.124 27.382,41.631 26.605,40.838 C25.896,41.293 25.184,41.719 24.473,42.116 C26.033,42.844 27.593,43.429 29.133,43.855 ZM4.054,41.940 C5.867,43.752 8.464,44.640 11.517,44.640 C14.511,44.640 17.946,43.787 21.516,42.117 C18.041,40.178 14.632,37.583 11.522,34.474 C9.214,32.167 7.183,29.689 5.478,27.101 C5.096,27.213 4.693,27.275 4.276,27.275 C3.765,27.275 3.275,27.184 2.821,27.020 C0.481,33.394 0.920,38.806 4.054,41.940 ZM4.055,4.059 C0.920,7.194 0.482,12.605 2.821,18.980 C3.275,18.815 3.765,18.725 4.276,18.725 C4.691,18.725 5.095,18.784 5.479,18.895 C7.185,16.309 9.215,13.832 11.522,11.525 C14.633,8.415 18.043,5.819 21.519,3.881 C14.398,0.546 7.705,0.410 4.055,4.059 ZM12.477,12.480 C10.281,14.675 8.344,17.028 6.711,19.482 C7.288,19.882 7.769,20.427 8.099,21.085 L6.892,21.690 C6.393,20.694 5.390,20.075 4.276,20.075 C2.663,20.075 1.351,21.387 1.351,23.000 C1.351,24.613 2.663,25.925 4.276,25.925 C5.889,25.925 7.201,24.613 7.201,23.000 C7.201,22.912 7.197,22.824 7.189,22.738 L8.534,22.619 C8.546,22.745 8.551,22.873 8.551,23.000 C8.551,24.454 7.820,25.740 6.708,26.512 C8.342,28.968 10.280,31.322 12.477,33.519 C15.746,36.788 19.347,39.467 22.993,41.382 C23.932,40.888 24.877,40.339 25.823,39.736 C25.541,39.167 25.382,38.526 25.382,37.849 C25.382,37.079 25.589,36.325 25.981,35.667 L27.141,36.357 C26.874,36.806 26.733,37.322 26.733,37.849 C26.733,39.462 28.045,40.774 29.658,40.774 C31.271,40.774 32.583,39.462 32.583,37.849 C32.583,36.236 31.271,34.924 29.658,34.924 C29.001,34.925 28.380,35.137 27.864,35.538 L27.035,34.473 C27.791,33.885 28.698,33.574 29.658,33.574 C30.708,33.574 31.670,33.955 32.415,34.586 C32.789,34.236 33.158,33.879 33.518,33.519 C36.788,30.249 39.468,26.647 41.383,23.000 C40.077,20.518 38.392,18.006 36.352,15.573 C35.672,16.028 34.856,16.295 33.978,16.295 C31.621,16.295 29.703,14.377 29.703,12.020 C29.703,11.142 29.969,10.326 30.424,9.646 C27.991,7.607 25.479,5.922 22.996,4.615 C19.349,6.531 15.747,9.210 12.477,12.480 ZM41.940,4.059 C39.182,1.302 34.634,0.622 29.133,2.144 C27.592,2.570 26.030,3.156 24.470,3.884 C26.811,5.190 29.131,6.796 31.345,8.656 C32.071,8.086 32.985,7.745 33.978,7.745 C34.748,7.745 35.502,7.952 36.161,8.343 L35.471,9.504 C35.021,9.236 34.505,9.095 33.978,9.095 C32.365,9.095 31.053,10.407 31.053,12.020 C31.053,13.633 32.365,14.945 33.978,14.945 C35.591,14.945 36.903,13.633 36.903,12.020 C36.903,11.363 36.691,10.743 36.289,10.226 L37.354,9.398 C37.943,10.153 38.253,11.060 38.253,12.020 C38.253,13.013 37.912,13.927 37.342,14.653 C39.203,16.866 40.809,19.186 42.114,21.527 C42.843,19.967 43.429,18.405 43.855,16.864 C45.378,11.365 44.698,6.817 41.940,4.059 ZM33.303,11.345 L34.653,11.345 L34.653,12.695 L33.303,12.695 L33.303,11.345 ZM30.214,23.325 C31.662,23.734 32.673,25.069 32.673,26.573 L32.673,29.975 L34.068,29.975 L34.068,31.324 L21.467,31.324 L21.467,29.975 L27.543,29.975 L27.543,28.129 L28.893,28.129 L28.893,29.975 L31.323,29.975 L31.323,26.573 C31.323,25.671 30.716,24.869 29.848,24.625 L29.343,24.482 L29.709,23.183 L30.214,23.325 ZM29.526,25.934 L29.160,27.233 L27.860,26.867 L28.227,25.568 L29.526,25.934 ZM26.563,26.503 L24.661,25.967 L25.028,24.668 L26.929,25.204 L26.563,26.503 ZM28.410,22.817 L28.044,24.116 L25.230,23.322 C24.662,23.944 23.858,24.305 22.997,24.305 C22.136,24.305 21.333,23.945 20.765,23.322 L16.147,24.625 C15.278,24.869 14.672,25.671 14.672,26.573 L14.672,29.975 L17.102,29.975 L17.102,28.129 L18.452,28.129 L18.452,29.975 L20.117,29.975 L20.117,31.324 L11.926,31.324 L11.926,29.975 L13.321,29.975 L13.321,26.573 C13.321,25.069 14.333,23.734 15.780,23.325 L20.342,22.039 L20.342,20.246 C19.093,19.395 18.272,17.962 18.272,16.340 L18.272,14.360 C18.272,11.755 20.392,9.635 22.997,9.635 C25.603,9.635 27.723,11.755 27.723,14.360 L27.723,16.340 C27.723,17.962 26.901,19.395 25.653,20.246 L25.653,22.039 L28.410,22.817 ZM21.692,22.332 C22.009,22.724 22.485,22.955 22.997,22.955 C23.510,22.955 23.985,22.724 24.302,22.332 L24.302,20.880 C23.887,21.000 23.450,21.065 22.997,21.065 C22.544,21.065 22.107,21.000 21.692,20.880 L21.692,22.332 ZM26.372,14.360 C26.372,12.499 24.858,10.985 22.997,10.985 C21.530,10.985 20.280,11.926 19.815,13.235 L24.953,13.235 L26.372,15.112 L26.372,14.360 ZM26.260,17.202 L24.282,14.585 L19.622,14.585 L19.622,16.340 C19.622,18.200 21.136,19.715 22.997,19.715 C24.560,19.715 25.878,18.647 26.260,17.202 ZM3.600,22.325 L4.951,22.325 L4.951,23.675 L3.600,23.675 L3.600,22.325 ZM30.333,38.524 L28.983,38.524 L28.983,37.174 L30.333,37.174 L30.333,38.524 Z"/>
<path fill="url(#PSgrad_0)"
 d="M45.156,17.225 C44.627,19.136 43.865,21.076 42.897,23.005 C44.102,25.406 44.984,27.810 45.492,30.126 C46.671,35.506 45.749,40.041 42.895,42.894 C40.838,44.950 37.956,46.000 34.513,46.000 C32.737,46.000 30.811,45.721 28.773,45.156 C26.863,44.627 24.925,43.866 22.996,42.899 C19.790,44.511 16.614,45.524 13.641,45.867 C12.899,45.952 12.179,45.995 11.482,45.995 C8.016,45.995 5.146,44.940 3.100,42.894 C1.268,41.063 0.206,38.489 0.028,35.452 C-0.132,32.720 0.422,29.583 1.629,26.353 C0.638,25.569 0.000,24.358 0.000,23.000 C0.000,21.641 0.638,20.429 1.629,19.646 C0.422,16.416 -0.132,13.280 0.028,10.547 C0.206,7.510 1.268,4.936 3.100,3.105 C5.954,0.251 10.489,-0.671 15.870,0.507 C18.186,1.016 20.591,1.897 22.992,3.102 C24.921,2.134 26.861,1.372 28.773,0.843 C34.762,-0.815 39.778,-0.012 42.895,3.105 C46.012,6.221 46.815,11.236 45.156,17.225 ZM29.133,43.855 C34.634,45.378 39.182,44.698 41.940,41.940 C45.590,38.290 45.454,31.598 42.119,24.477 C40.179,27.953 37.583,31.363 34.472,34.474 C34.089,34.856 33.696,35.237 33.298,35.609 C33.700,36.262 33.933,37.028 33.933,37.849 C33.933,40.206 32.015,42.124 29.658,42.124 C28.463,42.124 27.382,41.631 26.605,40.838 C25.896,41.293 25.184,41.719 24.473,42.116 C26.033,42.844 27.593,43.429 29.133,43.855 ZM4.054,41.940 C5.867,43.752 8.464,44.640 11.517,44.640 C14.511,44.640 17.946,43.787 21.516,42.117 C18.041,40.178 14.632,37.583 11.522,34.474 C9.214,32.167 7.183,29.689 5.478,27.101 C5.096,27.213 4.693,27.275 4.276,27.275 C3.765,27.275 3.275,27.184 2.821,27.020 C0.481,33.394 0.920,38.806 4.054,41.940 ZM4.055,4.059 C0.920,7.194 0.482,12.605 2.821,18.980 C3.275,18.815 3.765,18.725 4.276,18.725 C4.691,18.725 5.095,18.784 5.479,18.895 C7.185,16.309 9.215,13.832 11.522,11.525 C14.633,8.415 18.043,5.819 21.519,3.881 C14.398,0.546 7.705,0.410 4.055,4.059 ZM12.477,12.480 C10.281,14.675 8.344,17.028 6.711,19.482 C7.288,19.882 7.769,20.427 8.099,21.085 L6.892,21.690 C6.393,20.694 5.390,20.075 4.276,20.075 C2.663,20.075 1.351,21.387 1.351,23.000 C1.351,24.613 2.663,25.925 4.276,25.925 C5.889,25.925 7.201,24.613 7.201,23.000 C7.201,22.912 7.197,22.824 7.189,22.738 L8.534,22.619 C8.546,22.745 8.551,22.873 8.551,23.000 C8.551,24.454 7.820,25.740 6.708,26.512 C8.342,28.968 10.280,31.322 12.477,33.519 C15.746,36.788 19.347,39.467 22.993,41.382 C23.932,40.888 24.877,40.339 25.823,39.736 C25.541,39.167 25.382,38.526 25.382,37.849 C25.382,37.079 25.589,36.325 25.981,35.667 L27.141,36.357 C26.874,36.806 26.733,37.322 26.733,37.849 C26.733,39.462 28.045,40.774 29.658,40.774 C31.271,40.774 32.583,39.462 32.583,37.849 C32.583,36.236 31.271,34.924 29.658,34.924 C29.001,34.925 28.380,35.137 27.864,35.538 L27.035,34.473 C27.791,33.885 28.698,33.574 29.658,33.574 C30.708,33.574 31.670,33.955 32.415,34.586 C32.789,34.236 33.158,33.879 33.518,33.519 C36.788,30.249 39.468,26.647 41.383,23.000 C40.077,20.518 38.392,18.006 36.352,15.573 C35.672,16.028 34.856,16.295 33.978,16.295 C31.621,16.295 29.703,14.377 29.703,12.020 C29.703,11.142 29.969,10.326 30.424,9.646 C27.991,7.607 25.479,5.922 22.996,4.615 C19.349,6.531 15.747,9.210 12.477,12.480 ZM41.940,4.059 C39.182,1.302 34.634,0.622 29.133,2.144 C27.592,2.570 26.030,3.156 24.470,3.884 C26.811,5.190 29.131,6.796 31.345,8.656 C32.071,8.086 32.985,7.745 33.978,7.745 C34.748,7.745 35.502,7.952 36.161,8.343 L35.471,9.504 C35.021,9.236 34.505,9.095 33.978,9.095 C32.365,9.095 31.053,10.407 31.053,12.020 C31.053,13.633 32.365,14.945 33.978,14.945 C35.591,14.945 36.903,13.633 36.903,12.020 C36.903,11.363 36.691,10.743 36.289,10.226 L37.354,9.398 C37.943,10.153 38.253,11.060 38.253,12.020 C38.253,13.013 37.912,13.927 37.342,14.653 C39.203,16.866 40.809,19.186 42.114,21.527 C42.843,19.967 43.429,18.405 43.855,16.864 C45.378,11.365 44.698,6.817 41.940,4.059 ZM33.303,11.345 L34.653,11.345 L34.653,12.695 L33.303,12.695 L33.303,11.345 ZM30.214,23.325 C31.662,23.734 32.673,25.069 32.673,26.573 L32.673,29.975 L34.068,29.975 L34.068,31.324 L21.467,31.324 L21.467,29.975 L27.543,29.975 L27.543,28.129 L28.893,28.129 L28.893,29.975 L31.323,29.975 L31.323,26.573 C31.323,25.671 30.716,24.869 29.848,24.625 L29.343,24.482 L29.709,23.183 L30.214,23.325 ZM29.526,25.934 L29.160,27.233 L27.860,26.867 L28.227,25.568 L29.526,25.934 ZM26.563,26.503 L24.661,25.967 L25.028,24.668 L26.929,25.204 L26.563,26.503 ZM28.410,22.817 L28.044,24.116 L25.230,23.322 C24.662,23.944 23.858,24.305 22.997,24.305 C22.136,24.305 21.333,23.945 20.765,23.322 L16.147,24.625 C15.278,24.869 14.672,25.671 14.672,26.573 L14.672,29.975 L17.102,29.975 L17.102,28.129 L18.452,28.129 L18.452,29.975 L20.117,29.975 L20.117,31.324 L11.926,31.324 L11.926,29.975 L13.321,29.975 L13.321,26.573 C13.321,25.069 14.333,23.734 15.780,23.325 L20.342,22.039 L20.342,20.246 C19.093,19.395 18.272,17.962 18.272,16.340 L18.272,14.360 C18.272,11.755 20.392,9.635 22.997,9.635 C25.603,9.635 27.723,11.755 27.723,14.360 L27.723,16.340 C27.723,17.962 26.901,19.395 25.653,20.246 L25.653,22.039 L28.410,22.817 ZM21.692,22.332 C22.009,22.724 22.485,22.955 22.997,22.955 C23.510,22.955 23.985,22.724 24.302,22.332 L24.302,20.880 C23.887,21.000 23.450,21.065 22.997,21.065 C22.544,21.065 22.107,21.000 21.692,20.880 L21.692,22.332 ZM26.372,14.360 C26.372,12.499 24.858,10.985 22.997,10.985 C21.530,10.985 20.280,11.926 19.815,13.235 L24.953,13.235 L26.372,15.112 L26.372,14.360 ZM26.260,17.202 L24.282,14.585 L19.622,14.585 L19.622,16.340 C19.622,18.200 21.136,19.715 22.997,19.715 C24.560,19.715 25.878,18.647 26.260,17.202 ZM3.600,22.325 L4.951,22.325 L4.951,23.675 L3.600,23.675 L3.600,22.325 ZM30.333,38.524 L28.983,38.524 L28.983,37.174 L30.333,37.174 L30.333,38.524 Z"/>
</svg>