<svg 
 xmlns="http://www.w3.org/2000/svg"
 xmlns:xlink="http://www.w3.org/1999/xlink"
 width="14px" height="13px">
<path fill-rule="evenodd"  fill="rgb(255, 255, 255)"
 d="M12.968,7.901 C12.795,8.682 12.087,9.249 11.270,9.249 L4.731,9.249 C3.882,9.249 3.159,8.636 3.034,7.824 L2.059,1.363 C2.043,1.286 1.981,1.225 1.902,1.225 L0.629,1.225 C0.283,1.225 -0.000,0.949 -0.000,0.612 C-0.000,0.276 0.283,-0.000 0.629,-0.000 L1.902,-0.000 C2.609,-0.000 3.207,0.505 3.301,1.179 L3.458,2.205 L13.361,2.205 C13.408,2.205 13.455,2.220 13.486,2.220 C13.832,2.282 14.052,2.603 13.989,2.925 L12.968,7.901 ZM4.983,9.815 C5.847,9.815 6.570,10.489 6.602,11.331 C6.649,12.204 5.942,12.939 5.046,12.985 L5.014,12.985 C4.150,12.985 3.442,12.311 3.411,11.469 C3.379,10.596 4.071,9.861 4.983,9.815 ZM10.610,9.815 C11.506,9.815 12.229,10.535 12.245,11.408 C12.245,12.296 11.506,13.000 10.610,13.000 C9.698,13.000 8.975,12.280 8.975,11.408 C8.975,10.519 9.714,9.815 10.610,9.815 Z"/>
</svg>