<svg 
 xmlns="http://www.w3.org/2000/svg"
 xmlns:xlink="http://www.w3.org/1999/xlink"
 width="17px" height="14px">
<defs>
<linearGradient id="PSgrad_0" x1="0%" x2="100%" y1="0%" y2="0%">
  <stop offset="0%" stop-color="rgb(244,170,54)" stop-opacity="1" />
  <stop offset="100%" stop-color="rgb(243,115,53)" stop-opacity="1" />
</linearGradient>

</defs>
<path fill-rule="evenodd"  fill="rgb(255, 255, 255)"
 d="M2.475,14.001 L1.271,14.001 L2.122,13.204 C2.582,12.774 2.868,12.216 2.945,11.609 C0.979,10.402 -0.000,8.653 -0.000,6.819 C-0.000,3.436 3.324,-0.003 8.528,-0.003 C14.042,-0.003 16.999,3.161 16.999,6.522 C16.999,9.905 14.011,13.067 8.528,13.067 C7.567,13.067 6.565,12.948 5.670,12.728 C4.823,13.540 3.675,14.001 2.475,14.001 Z"/>
<path fill="url(#PSgrad_0)"
 d="M2.475,14.001 L1.271,14.001 L2.122,13.204 C2.582,12.774 2.868,12.216 2.945,11.609 C0.979,10.402 -0.000,8.653 -0.000,6.819 C-0.000,3.436 3.324,-0.003 8.528,-0.003 C14.042,-0.003 16.999,3.161 16.999,6.522 C16.999,9.905 14.011,13.067 8.528,13.067 C7.567,13.067 6.565,12.948 5.670,12.728 C4.823,13.540 3.675,14.001 2.475,14.001 Z"/>
</svg>