<svg 
 xmlns="http://www.w3.org/2000/svg"
 xmlns:xlink="http://www.w3.org/1999/xlink"
 width="19px" height="15px">
<path fill-rule="evenodd"  fill="#797979"
 d="M14.393,5.729 C14.389,5.734 14.384,5.739 14.379,5.744 C14.137,5.970 13.753,5.964 13.520,5.729 C13.287,5.494 13.294,5.120 13.535,4.894 L14.927,3.539 L11.536,3.539 C9.860,3.541 8.502,4.862 8.500,6.493 C8.497,8.776 6.596,10.626 4.250,10.629 L0.607,10.629 C0.272,10.629 0.000,10.365 0.000,10.038 C0.000,9.712 0.272,9.447 0.607,9.447 L4.250,9.447 C5.926,9.445 7.284,8.124 7.286,6.493 C7.288,4.210 9.190,2.360 11.536,2.357 L14.927,2.357 L13.534,1.002 C13.307,0.773 13.307,0.410 13.534,0.181 C13.767,-0.054 14.152,-0.061 14.393,0.166 L16.821,2.530 L16.822,2.529 C16.822,2.529 16.823,2.530 16.823,2.530 C17.060,2.761 17.059,3.135 16.822,3.366 L14.393,5.729 ZM6.274,4.291 C5.718,3.806 4.997,3.538 4.250,3.539 L0.607,3.539 C0.272,3.539 0.000,3.274 0.000,2.948 C0.000,2.622 0.272,2.357 0.607,2.357 L4.250,2.357 C5.296,2.356 6.305,2.731 7.084,3.411 C7.329,3.628 7.349,3.995 7.131,4.237 C6.910,4.482 6.526,4.506 6.274,4.291 ZM9.512,8.695 C10.068,9.180 10.789,9.448 11.536,9.447 L14.927,9.447 L13.534,8.092 C13.307,7.863 13.307,7.500 13.534,7.271 C13.767,7.036 14.152,7.030 14.393,7.256 L16.821,9.620 L16.822,9.619 C16.822,9.620 16.823,9.620 16.823,9.620 C17.060,9.851 17.059,10.225 16.822,10.456 L14.394,12.819 C14.389,12.824 14.384,12.829 14.379,12.834 C14.137,13.061 13.753,13.054 13.520,12.819 C13.287,12.585 13.294,12.211 13.535,11.984 L14.927,10.629 L11.536,10.629 C10.490,10.630 9.481,10.255 8.702,9.576 C8.457,9.359 8.436,8.991 8.655,8.749 C8.876,8.504 9.260,8.480 9.512,8.695 Z"/>
</svg>