<svg 
 xmlns="http://www.w3.org/2000/svg"
 xmlns:xlink="http://www.w3.org/1999/xlink"
 width="18px" height="18px">
<defs>
<linearGradient id="PSgrad_0" x1="0%" x2="100%" y1="0%" y2="0%">
  <stop offset="0%" stop-color="rgb(244,170,54)" stop-opacity="1" />
  <stop offset="100%" stop-color="rgb(243,115,53)" stop-opacity="1" />
</linearGradient>

</defs>
<path fill-rule="evenodd"  fill="rgb(255, 255, 255)"
 d="M17.528,13.210 L15.011,10.698 C14.112,9.801 12.583,10.159 12.224,11.326 C11.954,12.133 11.055,12.582 10.246,12.402 C8.448,11.954 6.021,9.621 5.572,7.737 C5.302,6.930 5.841,6.032 6.650,5.763 C7.819,5.404 8.178,3.879 7.280,2.982 L4.763,0.470 C4.043,-0.158 2.965,-0.158 2.335,0.470 L0.627,2.175 C-1.081,3.969 0.807,8.724 5.032,12.941 C9.257,17.157 14.022,19.131 15.819,17.337 L17.528,15.632 C18.157,14.914 18.157,13.838 17.528,13.210 Z"/>
<path fill="url(#PSgrad_0)"
 d="M17.528,13.210 L15.011,10.698 C14.112,9.801 12.583,10.159 12.224,11.326 C11.954,12.133 11.055,12.582 10.246,12.402 C8.448,11.954 6.021,9.621 5.572,7.737 C5.302,6.930 5.841,6.032 6.650,5.763 C7.819,5.404 8.178,3.879 7.280,2.982 L4.763,0.470 C4.043,-0.158 2.965,-0.158 2.335,0.470 L0.627,2.175 C-1.081,3.969 0.807,8.724 5.032,12.941 C9.257,17.157 14.022,19.131 15.819,17.337 L17.528,15.632 C18.157,14.914 18.157,13.838 17.528,13.210 Z"/>
</svg>