<svg 
 xmlns="http://www.w3.org/2000/svg"
 xmlns:xlink="http://www.w3.org/1999/xlink"
 width="17px" height="15px">
<defs>
<linearGradient id="PSgrad_0" x1="0%" x2="100%" y1="0%" y2="0%">
  <stop offset="0%" stop-color="rgb(253,200,48)" stop-opacity="1" />
  <stop offset="100%" stop-color="rgb(243,115,53)" stop-opacity="1" />
</linearGradient>

</defs>
<path fill-rule="evenodd"  fill="rgb(255, 255, 255)"
 d="M15.938,15.000 L1.062,15.000 C0.477,15.000 0.000,14.520 0.000,13.928 L0.000,8.571 L8.546,8.571 C9.271,9.696 10.376,10.655 11.959,11.574 C12.200,11.713 12.474,11.785 12.750,11.785 C13.026,11.785 13.300,11.713 13.544,11.572 C15.127,10.655 16.232,9.697 16.956,8.571 L17.000,8.571 L17.000,13.928 C17.000,14.520 16.524,15.000 15.938,15.000 ZM4.781,10.714 L2.656,10.714 C2.363,10.714 2.125,10.954 2.125,11.250 C2.125,11.546 2.363,11.785 2.656,11.785 L4.781,11.785 C5.074,11.785 5.312,11.546 5.312,11.250 C5.312,10.954 5.074,10.714 4.781,10.714 ZM13.014,10.643 C12.933,10.690 12.841,10.714 12.750,10.714 C12.659,10.714 12.567,10.690 12.485,10.643 C9.581,8.956 8.500,7.233 8.500,4.285 L8.500,2.142 C8.500,1.928 8.626,1.734 8.821,1.650 L12.540,0.043 C12.675,-0.015 12.824,-0.015 12.959,0.043 L16.678,1.650 C16.874,1.734 17.000,1.928 17.000,2.142 L17.000,4.285 C17.000,7.237 15.919,8.960 13.014,10.643 ZM14.675,3.332 C14.447,3.149 14.112,3.186 13.928,3.416 L12.258,5.523 L11.598,4.525 C11.435,4.278 11.104,4.213 10.862,4.376 C10.617,4.540 10.552,4.872 10.714,5.119 L11.777,6.726 C11.871,6.869 12.027,6.956 12.196,6.964 C12.203,6.964 12.211,6.964 12.219,6.964 C12.379,6.964 12.532,6.890 12.634,6.763 L14.759,4.085 C14.941,3.853 14.905,3.516 14.675,3.332 ZM0.000,4.285 C0.000,3.695 0.477,3.214 1.062,3.214 L7.437,3.214 L7.437,4.285 C7.437,5.068 7.514,5.773 7.662,6.428 L0.000,6.428 L0.000,4.285 Z"/>
<path fill="url(#PSgrad_0)"
 d="M15.938,15.000 L1.062,15.000 C0.477,15.000 0.000,14.520 0.000,13.928 L0.000,8.571 L8.546,8.571 C9.271,9.696 10.376,10.655 11.959,11.574 C12.200,11.713 12.474,11.785 12.750,11.785 C13.026,11.785 13.300,11.713 13.544,11.572 C15.127,10.655 16.232,9.697 16.956,8.571 L17.000,8.571 L17.000,13.928 C17.000,14.520 16.524,15.000 15.938,15.000 ZM4.781,10.714 L2.656,10.714 C2.363,10.714 2.125,10.954 2.125,11.250 C2.125,11.546 2.363,11.785 2.656,11.785 L4.781,11.785 C5.074,11.785 5.312,11.546 5.312,11.250 C5.312,10.954 5.074,10.714 4.781,10.714 ZM13.014,10.643 C12.933,10.690 12.841,10.714 12.750,10.714 C12.659,10.714 12.567,10.690 12.485,10.643 C9.581,8.956 8.500,7.233 8.500,4.285 L8.500,2.142 C8.500,1.928 8.626,1.734 8.821,1.650 L12.540,0.043 C12.675,-0.015 12.824,-0.015 12.959,0.043 L16.678,1.650 C16.874,1.734 17.000,1.928 17.000,2.142 L17.000,4.285 C17.000,7.237 15.919,8.960 13.014,10.643 ZM14.675,3.332 C14.447,3.149 14.112,3.186 13.928,3.416 L12.258,5.523 L11.598,4.525 C11.435,4.278 11.104,4.213 10.862,4.376 C10.617,4.540 10.552,4.872 10.714,5.119 L11.777,6.726 C11.871,6.869 12.027,6.956 12.196,6.964 C12.203,6.964 12.211,6.964 12.219,6.964 C12.379,6.964 12.532,6.890 12.634,6.763 L14.759,4.085 C14.941,3.853 14.905,3.516 14.675,3.332 ZM0.000,4.285 C0.000,3.695 0.477,3.214 1.062,3.214 L7.437,3.214 L7.437,4.285 C7.437,5.068 7.514,5.773 7.662,6.428 L0.000,6.428 L0.000,4.285 Z"/>
</svg>