<svg 
 xmlns="http://www.w3.org/2000/svg"
 xmlns:xlink="http://www.w3.org/1999/xlink"
 width="15px" height="15px">
<defs>
<linearGradient id="PSgrad_0" x1="0%" x2="100%" y1="0%" y2="0%">
  <stop offset="0%" stop-color="rgb(253,200,48)" stop-opacity="1" />
  <stop offset="100%" stop-color="rgb(243,115,53)" stop-opacity="1" />
</linearGradient>

</defs>
<path fill-rule="evenodd"  fill="rgb(255, 255, 255)"
 d="M7.508,0.007 C3.366,0.007 0.008,3.366 0.008,7.508 C0.008,11.650 3.366,15.009 7.508,15.009 C11.650,15.009 15.009,11.650 15.009,7.508 C15.009,3.366 11.650,0.007 7.508,0.007 ZM9.069,11.632 C8.684,11.784 8.376,11.900 8.145,11.980 C7.916,12.060 7.648,12.100 7.344,12.100 C6.877,12.100 6.513,11.985 6.254,11.758 C5.995,11.530 5.866,11.241 5.866,10.890 C5.866,10.754 5.876,10.613 5.895,10.471 C5.914,10.329 5.945,10.169 5.988,9.989 L6.471,8.283 C6.514,8.118 6.550,7.962 6.580,7.818 C6.609,7.671 6.623,7.538 6.623,7.416 C6.623,7.199 6.578,7.046 6.488,6.961 C6.397,6.875 6.227,6.833 5.972,6.833 C5.847,6.833 5.719,6.851 5.588,6.890 C5.458,6.930 5.344,6.966 5.252,7.002 L5.379,6.476 C5.696,6.347 5.999,6.237 6.288,6.145 C6.577,6.053 6.849,6.006 7.107,6.006 C7.571,6.006 7.929,6.120 8.181,6.343 C8.432,6.567 8.558,6.859 8.558,7.217 C8.558,7.292 8.550,7.422 8.532,7.609 C8.515,7.796 8.483,7.967 8.436,8.124 L7.955,9.826 C7.916,9.963 7.881,10.119 7.849,10.293 C7.818,10.468 7.802,10.601 7.802,10.692 C7.802,10.917 7.853,11.071 7.954,11.153 C8.055,11.235 8.231,11.277 8.479,11.277 C8.597,11.277 8.728,11.256 8.877,11.214 C9.025,11.174 9.131,11.137 9.198,11.106 L9.069,11.632 ZM8.984,4.725 C8.761,4.933 8.490,5.037 8.175,5.037 C7.860,5.037 7.588,4.933 7.362,4.725 C7.137,4.517 7.023,4.263 7.023,3.967 C7.023,3.672 7.138,3.418 7.362,3.208 C7.588,2.997 7.860,2.892 8.175,2.892 C8.490,2.892 8.761,2.997 8.984,3.208 C9.208,3.418 9.321,3.672 9.321,3.967 C9.321,4.264 9.208,4.517 8.984,4.725 Z"/>
<path fill="url(#PSgrad_0)"
 d="M7.508,0.007 C3.366,0.007 0.008,3.366 0.008,7.508 C0.008,11.650 3.366,15.009 7.508,15.009 C11.650,15.009 15.009,11.650 15.009,7.508 C15.009,3.366 11.650,0.007 7.508,0.007 ZM9.069,11.632 C8.684,11.784 8.376,11.900 8.145,11.980 C7.916,12.060 7.648,12.100 7.344,12.100 C6.877,12.100 6.513,11.985 6.254,11.758 C5.995,11.530 5.866,11.241 5.866,10.890 C5.866,10.754 5.876,10.613 5.895,10.471 C5.914,10.329 5.945,10.169 5.988,9.989 L6.471,8.283 C6.514,8.118 6.550,7.962 6.580,7.818 C6.609,7.671 6.623,7.538 6.623,7.416 C6.623,7.199 6.578,7.046 6.488,6.961 C6.397,6.875 6.227,6.833 5.972,6.833 C5.847,6.833 5.719,6.851 5.588,6.890 C5.458,6.930 5.344,6.966 5.252,7.002 L5.379,6.476 C5.696,6.347 5.999,6.237 6.288,6.145 C6.577,6.053 6.849,6.006 7.107,6.006 C7.571,6.006 7.929,6.120 8.181,6.343 C8.432,6.567 8.558,6.859 8.558,7.217 C8.558,7.292 8.550,7.422 8.532,7.609 C8.515,7.796 8.483,7.967 8.436,8.124 L7.955,9.826 C7.916,9.963 7.881,10.119 7.849,10.293 C7.818,10.468 7.802,10.601 7.802,10.692 C7.802,10.917 7.853,11.071 7.954,11.153 C8.055,11.235 8.231,11.277 8.479,11.277 C8.597,11.277 8.728,11.256 8.877,11.214 C9.025,11.174 9.131,11.137 9.198,11.106 L9.069,11.632 ZM8.984,4.725 C8.761,4.933 8.490,5.037 8.175,5.037 C7.860,5.037 7.588,4.933 7.362,4.725 C7.137,4.517 7.023,4.263 7.023,3.967 C7.023,3.672 7.138,3.418 7.362,3.208 C7.588,2.997 7.860,2.892 8.175,2.892 C8.490,2.892 8.761,2.997 8.984,3.208 C9.208,3.418 9.321,3.672 9.321,3.967 C9.321,4.264 9.208,4.517 8.984,4.725 Z"/>
</svg>