<svg xmlns="http://www.w3.org/2000/svg" xmlns:xlink="http://www.w3.org/1999/xlink" preserveAspectRatio="xMidYMid" width="12" height="16" viewBox="0 0 12 16">
  <defs>
    <style>
      .cls-1 {
        fill: #ffffff;
        fill-rule: evenodd;
      }
    </style>
  </defs>
  <path d="M6.000,-0.000 C2.692,-0.000 -0.000,2.733 -0.000,6.093 C-0.000,7.422 0.414,8.686 1.197,9.746 L5.630,15.810 C5.641,15.825 5.658,15.831 5.670,15.843 C5.892,16.084 6.212,16.024 6.369,15.810 C7.646,14.080 9.986,10.849 10.886,9.630 C10.886,9.630 10.886,9.629 10.886,9.629 L10.892,9.621 C11.617,8.587 12.000,7.367 12.000,6.093 C12.000,2.733 9.308,-0.000 6.000,-0.000 ZM6.000,9.380 C4.219,9.380 2.763,7.902 2.763,6.093 C2.763,4.284 4.219,2.806 6.000,2.806 C7.781,2.806 9.237,4.284 9.237,6.093 C9.237,7.902 7.781,9.380 6.000,9.380 Z" class="cls-1"/>
</svg>
