<svg 
 xmlns="http://www.w3.org/2000/svg"
 xmlns:xlink="http://www.w3.org/1999/xlink"
 width="21px" height="15px">
<defs>
<linearGradient id="PSgrad_0" x1="0%" x2="100%" y1="0%" y2="0%">
  <stop offset="0%" stop-color="rgb(244,170,54)" stop-opacity="1" />
  <stop offset="100%" stop-color="rgb(243,115,53)" stop-opacity="1" />
</linearGradient>

</defs>
<path fill-rule="evenodd"  fill="rgb(255, 255, 255)"
 d="M20.815,13.928 L14.446,7.500 L20.815,1.072 C20.930,1.316 21.000,1.586 21.000,1.875 L21.000,13.125 C21.000,13.413 20.930,13.684 20.815,13.928 ZM9.195,8.415 L1.055,0.188 C1.296,0.071 1.562,-0.000 1.846,-0.000 L19.154,-0.000 C19.438,-0.000 19.704,0.071 19.945,0.188 L11.805,8.415 C11.085,9.147 9.915,9.147 9.195,8.415 ZM0.185,13.928 C0.070,13.684 -0.000,13.414 -0.000,13.125 L-0.000,1.875 C-0.000,1.586 0.070,1.316 0.185,1.072 L6.554,7.500 L0.185,13.928 ZM8.325,9.299 C9.524,10.518 11.476,10.518 12.675,9.299 L13.576,8.384 L19.945,14.812 C19.704,14.929 19.438,15.000 19.154,15.000 L1.846,15.000 C1.562,15.000 1.296,14.929 1.055,14.812 L7.424,8.384 L8.325,9.299 Z"/>
<path fill="url(#PSgrad_0)"
 d="M20.815,13.928 L14.446,7.500 L20.815,1.072 C20.930,1.316 21.000,1.586 21.000,1.875 L21.000,13.125 C21.000,13.413 20.930,13.684 20.815,13.928 ZM9.195,8.415 L1.055,0.188 C1.296,0.071 1.562,-0.000 1.846,-0.000 L19.154,-0.000 C19.438,-0.000 19.704,0.071 19.945,0.188 L11.805,8.415 C11.085,9.147 9.915,9.147 9.195,8.415 ZM0.185,13.928 C0.070,13.684 -0.000,13.414 -0.000,13.125 L-0.000,1.875 C-0.000,1.586 0.070,1.316 0.185,1.072 L6.554,7.500 L0.185,13.928 ZM8.325,9.299 C9.524,10.518 11.476,10.518 12.675,9.299 L13.576,8.384 L19.945,14.812 C19.704,14.929 19.438,15.000 19.154,15.000 L1.846,15.000 C1.562,15.000 1.296,14.929 1.055,14.812 L7.424,8.384 L8.325,9.299 Z"/>
</svg>