<svg 
 xmlns="http://www.w3.org/2000/svg"
 xmlns:xlink="http://www.w3.org/1999/xlink"
 width="14px" height="21px">
<defs>
<linearGradient id="PSgrad_0" x1="0%" x2="100%" y1="0%" y2="0%">
  <stop offset="0%" stop-color="rgb(244,170,54)" stop-opacity="1" />
  <stop offset="100%" stop-color="rgb(243,115,53)" stop-opacity="1" />
</linearGradient>

</defs>
<path fill-rule="evenodd"  fill="rgb(255, 255, 255)"
 d="M7.000,-0.000 C3.140,-0.000 -0.000,3.140 -0.000,7.000 C-0.000,8.159 0.290,9.307 0.840,10.326 L6.617,20.774 C6.694,20.914 6.841,21.000 7.000,21.000 C7.159,21.000 7.306,20.914 7.383,20.774 L13.162,10.323 C13.710,9.307 14.000,8.159 14.000,7.000 C14.000,3.140 10.860,-0.000 7.000,-0.000 ZM7.000,10.500 C5.070,10.500 3.500,8.930 3.500,7.000 C3.500,5.070 5.070,3.500 7.000,3.500 C8.930,3.500 10.500,5.070 10.500,7.000 C10.500,8.930 8.930,10.500 7.000,10.500 Z"/>
<path fill="url(#PSgrad_0)"
 d="M7.000,-0.000 C3.140,-0.000 -0.000,3.140 -0.000,7.000 C-0.000,8.159 0.290,9.307 0.840,10.326 L6.617,20.774 C6.694,20.914 6.841,21.000 7.000,21.000 C7.159,21.000 7.306,20.914 7.383,20.774 L13.162,10.323 C13.710,9.307 14.000,8.159 14.000,7.000 C14.000,3.140 10.860,-0.000 7.000,-0.000 ZM7.000,10.500 C5.070,10.500 3.500,8.930 3.500,7.000 C3.500,5.070 5.070,3.500 7.000,3.500 C8.930,3.500 10.500,5.070 10.500,7.000 C10.500,8.930 8.930,10.500 7.000,10.500 Z"/>
</svg>