<svg 
 xmlns="http://www.w3.org/2000/svg"
 xmlns:xlink="http://www.w3.org/1999/xlink"
 width="20px" height="17px">
<path fill-rule="evenodd"  fill="rgb(121, 121, 121)"
 d="M0.591,7.682 C1.797,4.828 5.052,3.401 10.357,3.401 L12.857,3.401 L12.857,0.681 C12.857,0.497 12.928,0.338 13.069,0.203 C13.211,0.069 13.378,0.001 13.571,0.001 C13.765,0.001 13.932,0.069 14.074,0.203 L19.788,5.642 C19.929,5.777 20.000,5.936 20.000,6.121 C20.000,6.305 19.929,6.464 19.788,6.599 L14.074,12.038 C13.932,12.172 13.765,12.240 13.571,12.240 C13.378,12.240 13.211,12.172 13.069,12.038 C12.928,11.903 12.857,11.744 12.857,11.560 L12.857,8.840 L10.357,8.840 C9.628,8.840 8.975,8.861 8.399,8.904 C7.822,8.946 7.249,9.022 6.680,9.132 C6.111,9.242 5.616,9.393 5.195,9.584 C4.775,9.775 4.383,10.021 4.018,10.322 C3.653,10.623 3.356,10.981 3.125,11.395 C2.894,11.810 2.714,12.300 2.584,12.866 C2.454,13.433 2.388,14.074 2.388,14.789 C2.388,15.179 2.407,15.614 2.444,16.096 C2.444,16.138 2.453,16.221 2.472,16.346 C2.491,16.470 2.500,16.563 2.500,16.627 C2.500,16.733 2.468,16.822 2.405,16.893 C2.342,16.963 2.254,16.999 2.143,16.999 C2.024,16.999 1.920,16.938 1.830,16.818 C1.778,16.754 1.730,16.676 1.685,16.584 C1.641,16.492 1.590,16.386 1.534,16.266 C1.479,16.145 1.439,16.061 1.417,16.011 C0.472,13.993 -0.000,12.396 -0.000,11.220 C-0.000,9.811 0.197,8.631 0.591,7.682 Z"/>
</svg>