<svg 
 xmlns="http://www.w3.org/2000/svg"
 xmlns:xlink="http://www.w3.org/1999/xlink"
 width="19px" height="19px">
<path fill-rule="evenodd"  fill="rgb(255, 255, 255)"
 d="M18.774,18.774 C18.623,18.925 18.425,19.000 18.228,19.000 C18.030,19.000 17.832,18.925 17.682,18.774 L13.709,14.801 C12.259,16.007 10.397,16.734 8.367,16.734 C3.754,16.734 -0.000,12.981 -0.000,8.367 C-0.000,3.754 3.754,-0.000 8.367,-0.000 C12.981,-0.000 16.734,3.754 16.734,8.367 C16.734,10.397 16.007,12.259 14.801,13.709 L18.774,17.682 C19.075,17.983 19.075,18.472 18.774,18.774 ZM8.367,1.545 C4.605,1.545 1.545,4.605 1.545,8.367 C1.545,12.129 4.605,15.190 8.367,15.190 C12.129,15.190 15.190,12.129 15.190,8.367 C15.190,4.605 12.129,1.545 8.367,1.545 Z"/>
</svg>