<svg 
 xmlns="http://www.w3.org/2000/svg"
 xmlns:xlink="http://www.w3.org/1999/xlink"
 width="13px" height="13px">
<defs>
<linearGradient id="PSgrad_0" x1="0%" x2="100%" y1="0%" y2="0%">
  <stop offset="0%" stop-color="rgb(244,170,54)" stop-opacity="1" />
  <stop offset="100%" stop-color="rgb(243,115,53)" stop-opacity="1" />
</linearGradient>

</defs>
<path fill-rule="evenodd"  fill="rgb(17, 17, 17)"
 d="M0.384,6.227 L6.230,0.380 C6.468,0.146 6.793,0.000 7.150,0.000 L11.700,0.000 C12.418,0.000 13.000,0.582 13.000,1.300 L13.000,5.850 C13.000,6.211 12.854,6.536 12.616,6.770 L6.766,12.620 C6.532,12.854 6.207,13.000 5.850,13.000 C5.493,13.000 5.164,12.854 4.930,12.620 L0.380,8.070 C0.146,7.833 0.000,7.508 0.000,7.150 C0.000,6.789 0.146,6.464 0.384,6.227 ZM10.725,3.250 C11.265,3.250 11.700,2.815 11.700,2.275 C11.700,1.735 11.265,1.300 10.725,1.300 C10.185,1.300 9.750,1.735 9.750,2.275 C9.750,2.815 10.186,3.250 10.725,3.250 Z"/>
<path fill="url(#PSgrad_0)"
 d="M0.384,6.227 L6.230,0.380 C6.468,0.146 6.793,0.000 7.150,0.000 L11.700,0.000 C12.418,0.000 13.000,0.582 13.000,1.300 L13.000,5.850 C13.000,6.211 12.854,6.536 12.616,6.770 L6.766,12.620 C6.532,12.854 6.207,13.000 5.850,13.000 C5.493,13.000 5.164,12.854 4.930,12.620 L0.380,8.070 C0.146,7.833 0.000,7.508 0.000,7.150 C0.000,6.789 0.146,6.464 0.384,6.227 ZM10.725,3.250 C11.265,3.250 11.700,2.815 11.700,2.275 C11.700,1.735 11.265,1.300 10.725,1.300 C10.185,1.300 9.750,1.735 9.750,2.275 C9.750,2.815 10.186,3.250 10.725,3.250 Z"/>
</svg>