<svg 
 xmlns="http://www.w3.org/2000/svg"
 xmlns:xlink="http://www.w3.org/1999/xlink"
 width="13px" height="15px">
<defs>
<linearGradient id="PSgrad_0" x1="0%" x2="100%" y1="0%" y2="0%">
  <stop offset="0%" stop-color="rgb(253,200,48)" stop-opacity="1" />
  <stop offset="100%" stop-color="rgb(243,115,53)" stop-opacity="1" />
</linearGradient>

</defs>
<path fill-rule="evenodd"  fill="rgb(255, 255, 255)"
 d="M12.231,14.302 C11.727,14.763 11.061,14.997 10.251,14.997 L2.746,14.997 C1.936,14.997 1.270,14.763 0.766,14.302 C0.257,13.835 -0.002,13.201 -0.002,12.418 C-0.002,12.117 0.009,11.819 0.029,11.533 C0.050,11.239 0.092,10.920 0.155,10.585 C0.219,10.246 0.300,9.925 0.398,9.632 C0.498,9.329 0.635,9.029 0.804,8.743 C0.979,8.445 1.186,8.186 1.418,7.973 C1.660,7.750 1.957,7.571 2.299,7.441 C2.641,7.310 3.019,7.245 3.426,7.245 C3.585,7.245 3.739,7.307 4.035,7.493 C4.221,7.610 4.435,7.741 4.671,7.887 C4.875,8.012 5.151,8.130 5.493,8.236 C5.826,8.339 6.164,8.393 6.499,8.393 C6.833,8.393 7.171,8.339 7.504,8.236 C7.846,8.129 8.122,8.012 8.327,7.887 C8.565,7.740 8.779,7.608 8.961,7.493 C9.259,7.307 9.413,7.245 9.571,7.245 C9.977,7.245 10.356,7.310 10.697,7.441 C11.040,7.571 11.336,7.750 11.579,7.973 C11.811,8.186 12.016,8.445 12.192,8.743 C12.362,9.029 12.500,9.329 12.600,9.632 C12.698,9.925 12.779,10.246 12.842,10.585 C12.905,10.921 12.947,11.239 12.969,11.532 C12.989,11.818 13.000,12.116 13.000,12.418 C13.000,13.201 12.741,13.835 12.231,14.302 ZM6.400,7.224 C5.370,7.224 4.477,6.868 3.747,6.166 C3.016,5.464 2.647,4.604 2.647,3.613 C2.647,2.620 3.016,1.761 3.747,1.059 C4.476,0.357 5.369,0.001 6.400,0.001 C7.432,0.001 8.324,0.357 9.055,1.059 C9.784,1.761 10.154,2.621 10.154,3.613 C10.154,4.604 9.784,5.463 9.055,6.166 C8.324,6.869 7.432,7.224 6.400,7.224 Z"/>
<path fill="url(#PSgrad_0)"
 d="M12.231,14.302 C11.727,14.763 11.061,14.997 10.251,14.997 L2.746,14.997 C1.936,14.997 1.270,14.763 0.766,14.302 C0.257,13.835 -0.002,13.201 -0.002,12.418 C-0.002,12.117 0.009,11.819 0.029,11.533 C0.050,11.239 0.092,10.920 0.155,10.585 C0.219,10.246 0.300,9.925 0.398,9.632 C0.498,9.329 0.635,9.029 0.804,8.743 C0.979,8.445 1.186,8.186 1.418,7.973 C1.660,7.750 1.957,7.571 2.299,7.441 C2.641,7.310 3.019,7.245 3.426,7.245 C3.585,7.245 3.739,7.307 4.035,7.493 C4.221,7.610 4.435,7.741 4.671,7.887 C4.875,8.012 5.151,8.130 5.493,8.236 C5.826,8.339 6.164,8.393 6.499,8.393 C6.833,8.393 7.171,8.339 7.504,8.236 C7.846,8.129 8.122,8.012 8.327,7.887 C8.565,7.740 8.779,7.608 8.961,7.493 C9.259,7.307 9.413,7.245 9.571,7.245 C9.977,7.245 10.356,7.310 10.697,7.441 C11.040,7.571 11.336,7.750 11.579,7.973 C11.811,8.186 12.016,8.445 12.192,8.743 C12.362,9.029 12.500,9.329 12.600,9.632 C12.698,9.925 12.779,10.246 12.842,10.585 C12.905,10.921 12.947,11.239 12.969,11.532 C12.989,11.818 13.000,12.116 13.000,12.418 C13.000,13.201 12.741,13.835 12.231,14.302 ZM6.400,7.224 C5.370,7.224 4.477,6.868 3.747,6.166 C3.016,5.464 2.647,4.604 2.647,3.613 C2.647,2.620 3.016,1.761 3.747,1.059 C4.476,0.357 5.369,0.001 6.400,0.001 C7.432,0.001 8.324,0.357 9.055,1.059 C9.784,1.761 10.154,2.621 10.154,3.613 C10.154,4.604 9.784,5.463 9.055,6.166 C8.324,6.869 7.432,7.224 6.400,7.224 Z"/>
</svg>