<svg 
 xmlns="http://www.w3.org/2000/svg"
 xmlns:xlink="http://www.w3.org/1999/xlink"
 width="19px" height="13px">
<path fill-rule="evenodd"  fill="rgb(255, 255, 255)"
 d="M18.878,6.897 C18.709,7.146 14.665,13.000 9.499,13.000 C4.334,13.000 0.290,7.146 0.120,6.897 C-0.041,6.660 -0.041,6.340 0.120,6.103 C0.290,5.854 4.334,-0.000 9.499,-0.000 C14.665,-0.000 18.709,5.854 18.878,6.103 C19.039,6.340 19.039,6.660 18.878,6.897 ZM9.499,1.345 C5.686,1.345 2.398,5.228 1.424,6.500 C2.399,7.770 5.695,11.655 9.499,11.655 C13.312,11.655 16.601,7.772 17.575,6.500 C16.599,5.230 13.304,1.345 9.499,1.345 ZM9.499,10.535 C7.427,10.535 5.741,8.725 5.741,6.500 C5.741,4.275 7.427,2.465 9.499,2.465 C11.572,2.465 13.257,4.275 13.257,6.500 C13.257,8.725 11.572,10.535 9.499,10.535 ZM9.499,3.810 C8.118,3.810 6.994,5.017 6.994,6.500 C6.994,7.983 8.118,9.190 9.499,9.190 C10.881,9.190 12.005,7.983 12.005,6.500 C12.005,5.017 10.881,3.810 9.499,3.810 Z"/>
</svg>