<svg 
 xmlns="http://www.w3.org/2000/svg"
 xmlns:xlink="http://www.w3.org/1999/xlink"
 width="20px" height="12px">
<defs>
<linearGradient id="PSgrad_0" x1="0%" x2="100%" y1="0%" y2="0%">
  <stop offset="0%" stop-color="rgb(244,170,54)" stop-opacity="1" />
  <stop offset="100%" stop-color="rgb(243,115,53)" stop-opacity="1" />
</linearGradient>

</defs>
<path fill-rule="evenodd"  fill="rgb(255, 255, 255)"
 d="M9.981,-0.000 C6.165,-0.000 2.704,2.104 0.150,5.522 C-0.058,5.802 -0.058,6.193 0.150,6.473 C2.704,9.896 6.165,12.000 9.981,12.000 C13.797,12.000 17.258,9.896 19.812,6.478 C20.020,6.198 20.020,5.806 19.812,5.526 C17.258,2.104 13.797,-0.000 9.981,-0.000 ZM10.255,10.225 C7.722,10.386 5.630,8.281 5.789,5.724 C5.920,3.616 7.615,1.907 9.707,1.775 C12.241,1.614 14.333,3.718 14.173,6.276 C14.038,8.380 12.343,10.089 10.255,10.225 ZM10.128,8.273 C8.764,8.359 7.636,7.227 7.726,5.852 C7.795,4.715 8.710,3.797 9.838,3.723 C11.203,3.636 12.331,4.769 12.241,6.144 C12.167,7.285 11.252,8.203 10.128,8.273 Z"/>
<path fill="url(#PSgrad_0)"
 d="M9.981,-0.000 C6.165,-0.000 2.704,2.104 0.150,5.522 C-0.058,5.802 -0.058,6.193 0.150,6.473 C2.704,9.896 6.165,12.000 9.981,12.000 C13.797,12.000 17.258,9.896 19.812,6.478 C20.020,6.198 20.020,5.806 19.812,5.526 C17.258,2.104 13.797,-0.000 9.981,-0.000 ZM10.255,10.225 C7.722,10.386 5.630,8.281 5.789,5.724 C5.920,3.616 7.615,1.907 9.707,1.775 C12.241,1.614 14.333,3.718 14.173,6.276 C14.038,8.380 12.343,10.089 10.255,10.225 ZM10.128,8.273 C8.764,8.359 7.636,7.227 7.726,5.852 C7.795,4.715 8.710,3.797 9.838,3.723 C11.203,3.636 12.331,4.769 12.241,6.144 C12.167,7.285 11.252,8.203 10.128,8.273 Z"/>
</svg>