<svg xmlns="http://www.w3.org/2000/svg" xmlns:xlink="http://www.w3.org/1999/xlink" preserveAspectRatio="xMidYMid" width="15" height="14.03" viewBox="0 0 15 14.03">
  <defs>
    <style>
      .cls-1 {
        fill: #f2f3f5;
        fill-rule: evenodd;
      }
    </style>
  </defs>
  <path d="M13.786,1.433 C12.974,0.516 11.863,0.010 10.654,0.010 C9.746,0.010 8.913,0.310 8.181,0.900 C7.940,1.095 7.712,1.321 7.500,1.574 C7.291,1.323 7.062,1.097 6.819,0.900 C6.087,0.310 5.255,0.010 4.346,0.010 C3.138,0.010 2.026,0.516 1.215,1.433 C0.423,2.330 -0.014,3.553 -0.014,4.871 C-0.014,6.225 0.462,7.457 1.486,8.747 C2.370,9.860 3.622,10.974 5.082,12.272 C5.546,12.685 6.121,13.198 6.704,13.729 C6.924,13.930 7.207,14.041 7.500,14.041 C7.794,14.041 8.077,13.930 8.296,13.729 C8.882,13.195 9.458,12.682 9.922,12.270 C11.373,10.979 12.626,9.865 13.513,8.747 C14.537,7.457 15.015,6.226 15.015,4.871 C15.015,3.553 14.578,2.330 13.786,1.433 ZM4.346,1.640 C4.897,1.640 5.404,1.824 5.854,2.186 C6.267,2.521 6.558,2.948 6.729,3.248 C6.893,3.533 7.181,3.703 7.500,3.703 C7.819,3.703 8.108,3.533 8.271,3.248 C8.441,2.949 8.732,2.522 9.147,2.186 C9.595,1.824 10.103,1.640 10.654,1.640 C11.416,1.640 12.117,1.957 12.626,2.533 C13.153,3.129 13.442,3.960 13.442,4.871 C13.442,5.841 13.090,6.716 12.301,7.711 C11.504,8.714 10.301,9.785 8.898,11.033 L8.870,11.058 C8.495,11.391 8.007,11.825 7.499,12.283 C7.008,11.839 6.539,11.422 6.099,11.030 C4.704,9.788 3.499,8.716 2.700,7.711 C1.911,6.716 1.558,5.841 1.558,4.871 C1.558,3.960 1.848,3.129 2.374,2.534 C2.884,1.957 3.584,1.640 4.346,1.640 Z" class="cls-1"/>
</svg>
