<svg id="Logo" xmlns="http://www.w3.org/2000/svg" width="128" height="51" viewBox="0 0 128 51">
  <defs>
    <style>
      .cls-1 {
        fill: #fff;
        fill-rule: evenodd;
      }
    </style>
  </defs>
  <path class="cls-1" d="M63.691,21.417a5.212,5.212,0,0,0-1.744.3,6.485,6.485,0,0,0-2.283,1.166V21.9H57.21V31.48l2.453,1.3V27.284a5.612,5.612,0,0,1,2.288-4.3,3.361,3.361,0,0,1,2.11-.958,1.889,1.889,0,0,1,.959.285,0.89,0.89,0,0,1,.562.752,1.831,1.831,0,0,1-.895,1.476,3.262,3.262,0,0,1-1.649.647l1.918,2.2a5.451,5.451,0,0,0,1.61-1.218,2.693,2.693,0,0,0,.907-1.723,2.317,2.317,0,0,0-.628-1.593A4.089,4.089,0,0,0,63.691,21.417Zm64.286-1.632L128,18.231H85.6V16.682a11.613,11.613,0,0,0-.281-2.4A10.438,10.438,0,0,0,82.529,9.01H79.807l0.8,0.92a11.455,11.455,0,0,1,2.263,3.887,8.954,8.954,0,0,1,.523,2.89v1.524H49.439V15.507l-2.3-1.614v4.338H18.994v1.554h2.62v3.351c-0.008.009-.03,0.035-0.064,0.078q-0.319.286-.486,0.429V24.6q0.729-.259,1.5-0.582a10.073,10.073,0,0,1,3.77-.764,3.285,3.285,0,0,1,1.451.22,3.185,3.185,0,0,1,1.093.972v1.192a4.7,4.7,0,0,0-2.939-.855,6.806,6.806,0,0,0-5.049,2.059,3.081,3.081,0,0,0-1.048,2.137,2.609,2.609,0,0,0,.664,1.735,4.823,4.823,0,0,0,3.885,1.605,7.358,7.358,0,0,0,3.208-.66q0.436-.207,1.112-0.608a0.63,0.63,0,0,1,.167.531q1.764,0.738,2.032.842V27.439a11.343,11.343,0,0,0-.55-4.39q-0.818-1.632-3.693-1.632a7.682,7.682,0,0,0-1.393.13,16.4,16.4,0,0,0-1.851.392,0.133,0.133,0,0,1-.028-0.017,0.148,0.148,0,0,0-.1-0.052V19.785H41.719V22a14.456,14.456,0,0,0-3.476-.609,9.23,9.23,0,0,0-2.288.311q-2.966.764-2.953,2.953a3.491,3.491,0,0,0,.639,2.007A3.923,3.923,0,0,0,36.99,28.6a10.918,10.918,0,0,0,1.866-.415,20.464,20.464,0,0,1,3.053-.7q1.534,0,1.535.984a1.308,1.308,0,0,1-.831,1.114,7.46,7.46,0,0,1-3.643.933,5.9,5.9,0,0,1-2.472-.745,6.179,6.179,0,0,0-1.975-.745,1.054,1.054,0,0,0-1.278,1.088,1.564,1.564,0,0,0,.8,1.386,7.255,7.255,0,0,0,3.643.867,1.737,1.737,0,0,1,.959,1.036A8.418,8.418,0,0,0,39.7,34.976a2.3,2.3,0,0,0,1.686.687,2.606,2.606,0,0,0,1.623-.35l-1.29-2.136a2.408,2.408,0,0,1-.576.078,2.581,2.581,0,0,1-1.751-.934,5.72,5.72,0,0,0,2.019-.556q2.556-1.179,2.556-3.238a2.431,2.431,0,0,0-.523-1.554,3.933,3.933,0,0,0-3.3-1.386,5.479,5.479,0,0,0-1.585.156q-1.061.375-1.738,0.621a5.159,5.159,0,0,1-1.7.388,0.933,0.933,0,0,1-1.074-1.036,1.423,1.423,0,0,1,.895-1.256,8.3,8.3,0,0,1,3.925-.842,10.326,10.326,0,0,1,2.3.311,7.636,7.636,0,0,1,2.172.777V19.785h3.8v9.451a2.716,2.716,0,0,0,.434,1.427,3.129,3.129,0,0,0,2.786,1.658q3.081,0.014,4.551-3.289L52.34,27.543q0,3.989-1.905,3.989a0.846,0.846,0,0,1-.715-0.453,1.508,1.508,0,0,1-.281-0.856V19.785h27.4v2.059c0,0.07-.025.1-0.076,0.1a11.037,11.037,0,0,0-2.645-.48,4.726,4.726,0,0,0-2.774.8,6.3,6.3,0,0,0-1.637,1.7,4,4,0,0,0-.754,2.2,5.612,5.612,0,0,0,2.327,4.273,6.788,6.788,0,0,0,4.32,1.878,5.459,5.459,0,0,0,2.672-.673,4.693,4.693,0,0,0,2.594-4.4,4.267,4.267,0,0,0-.779-2.748,6.152,6.152,0,0,1-1.023-1.154V19.785H83.4V31.544a12.413,12.413,0,0,1,1.2.6l0.664,0.35a2.364,2.364,0,0,0,.333.142V19.785h10.1v2.059c0,0.07-.025.1-0.076,0.1a11.037,11.037,0,0,0-2.645-.48,4.726,4.726,0,0,0-2.774.8,6.3,6.3,0,0,0-1.637,1.7,4,4,0,0,0-.754,2.2,5.612,5.612,0,0,0,2.327,4.273,6.788,6.788,0,0,0,4.32,1.878,5.459,5.459,0,0,0,2.672-.673,4.693,4.693,0,0,0,2.594-4.4,4.266,4.266,0,0,0-.779-2.748,6.148,6.148,0,0,1-1.023-1.154V19.785H107v1.439a0.266,0.266,0,0,1-.192.233q-4.792,0-4.793,2.982a2.776,2.776,0,0,0,.525,1.62l0.626,0.894-0.027.143a2.64,2.64,0,0,0-1.393.6A1.6,1.6,0,0,0,101,28.951q0,1.244,1.994,2.683a3,3,0,0,0,1.637.687,8.839,8.839,0,0,0,3.028-.938,8.851,8.851,0,0,1,3.03-.939,2.047,2.047,0,0,1,1.61.693,2.5,2.5,0,0,1,.614,1.716,2.07,2.07,0,0,1-.434,1.192,3.13,3.13,0,0,1-2.685,1.412,4.024,4.024,0,0,1-1.955-.882,19.1,19.1,0,0,0-2.02-1.269,5.488,5.488,0,0,0-2.314-.453,5.77,5.77,0,0,0-3.437,1.075,7.754,7.754,0,0,0-2.187,2.383,6,6,0,0,0-.92,3.1,3,3,0,0,0,.052.66A9.39,9.39,0,0,1,105,34.731a8.393,8.393,0,0,1,3.6,1.087,7.382,7.382,0,0,0,2.965.984,2.928,2.928,0,0,0,1.06-.183c0,0.028-.012.053-0.013,0.081a3.144,3.144,0,0,0,.792,1.774q1.956,2.552,6.583,2.551a8.146,8.146,0,0,0,4.768-1.411,4.632,4.632,0,0,0,2.2-3.95V22.4l-2.647-.933v4.883a4.126,4.126,0,0,1-.651,2.124,5.351,5.351,0,0,1-1.521,1.645,3.26,3.26,0,0,1-2.071.687,2.9,2.9,0,0,1-2.274-.921,4.114,4.114,0,0,1-.576-2.451v-7.65h10.762ZM27.161,29.6a8.163,8.163,0,0,1-4.345,1.205q-1.841,0-2.11-.945a2.288,2.288,0,0,1,.653-1.3,5.314,5.314,0,0,1,4.32-1.968,6.027,6.027,0,0,1,1.854.376q1.34,0.454,1.341,1.023T27.161,29.6Zm49.808-.235a5.691,5.691,0,0,1-3.476,1.556,2.575,2.575,0,0,1-1.267-.351,2.284,2.284,0,0,1-1.379-2,5.241,5.241,0,0,1,2.133-4.294,5.667,5.667,0,0,1,3.412-1.44,2.829,2.829,0,0,1,1.01.233,2.4,2.4,0,0,1,1.585,2.452A4.88,4.88,0,0,1,76.97,29.367Zm18.851,0a5.691,5.691,0,0,1-3.476,1.556,2.575,2.575,0,0,1-1.267-.351,2.284,2.284,0,0,1-1.379-2,5.241,5.241,0,0,1,2.133-4.294,5.667,5.667,0,0,1,3.412-1.44,2.829,2.829,0,0,1,1.01.233,2.4,2.4,0,0,1,1.585,2.452A4.88,4.88,0,0,1,95.821,29.367Zm8.907-5.994a3.984,3.984,0,0,1,2.518-.945,1.422,1.422,0,0,1,1.649,1.567,2.688,2.688,0,0,1-.651,1.775,5.213,5.213,0,0,1-1.356,1.113,3.21,3.21,0,0,1-1.649.531,1.78,1.78,0,0,1-1.246-.5,1.6,1.6,0,0,1-.542-1.218A2.921,2.921,0,0,1,104.728,23.372Zm15.388,8.017q3.6,0,4.435-1.373v5.272a4.031,4.031,0,0,1-.843,2.538,6.258,6.258,0,0,1-5.266,2.291,4.977,4.977,0,0,1-2.48-.544,2.969,2.969,0,0,1-1.751-2.084,1.559,1.559,0,0,1,1.137-1.334,11.4,11.4,0,0,1,3.937-.946l-1.623-2.2a6.121,6.121,0,0,0-3.259.972,5.245,5.245,0,0,0-.537.4,10.571,10.571,0,0,0-.294-2.034,6.379,6.379,0,0,0-1.085-2.539,2.715,2.715,0,0,0-2.3-1.23,9.977,9.977,0,0,0-3.937,1.23,8.3,8.3,0,0,1-2.8,1.023,1.224,1.224,0,0,1-.767-0.291,0.886,0.886,0,0,1-.384-0.68,1.233,1.233,0,0,1,.358-0.738q0.931-1.152,3.488-1.153a7.708,7.708,0,0,0,2.941-.415,2.347,2.347,0,0,0,1.406-2.37,2.682,2.682,0,0,0-.089-0.751,3.641,3.641,0,0,0-.217-0.4,0.941,0.941,0,0,1-.168-0.466,0.453,0.453,0,0,1,.244-0.337,0.776,0.776,0,0,1,.422-0.168,0.894,0.894,0,0,1,.767.66,3.047,3.047,0,0,1,.242,1.088l1.343-1.554A2.293,2.293,0,0,0,112.6,22.4a2.007,2.007,0,0,0-1.534-.933,1.176,1.176,0,0,0-.689.261l-0.492.59a0.883,0.883,0,0,1-.548.405A0.725,0.725,0,0,1,109,21.971V19.785h5.764v7.17a3.794,3.794,0,0,0,.767,2.334A5.356,5.356,0,0,0,120.116,31.389Z"/>
  <path class="cls-1" d="M-0.007,24.98l9.458,5.2V20.816ZM4.2,9.367l5.255,9.367,5.255-7.286ZM17.859,0L16.808,10.408l8.408-3.122Zm10.51,6.245,9.458,4.163V0ZM8.4,32.266L4.2,41.633l10.509-2.081Zm8.408,8.326L17.859,51l7.357-7.286Zm11.561,3.122L36.777,51l1.051-11.449Z"/>
  <path class="cls-1" d="M26.858,39.811a14.312,14.312,0,1,1,0-28.622A14.484,14.484,0,0,1,38,16.4V14.117A16.042,16.042,0,0,0,10.831,25.5,16.042,16.042,0,0,0,38,36.883V34.6A14.484,14.484,0,0,1,26.858,39.811Z"/>
</svg>
