<svg id="Logo" xmlns="http://www.w3.org/2000/svg" width="148.093" height="59" viewBox="0 0 148.093 59">
  <defs>
    <style>
      .cls-1 {
        fill: #ff6f00;
        fill-rule: evenodd;
      }
    </style>
  </defs>
  <path class="cls-1" d="M224.642,60.777a6.029,6.029,0,0,0-2.018.344,7.5,7.5,0,0,0-2.641,1.348V61.33h-2.839V72.418l2.839,1.5V67.564a6.492,6.492,0,0,1,2.646-4.975,3.89,3.89,0,0,1,2.441-1.108,2.188,2.188,0,0,1,1.11.33,1.03,1.03,0,0,1,.65.87,2.117,2.117,0,0,1-1.035,1.708,3.776,3.776,0,0,1-1.908.749l2.218,2.547a6.305,6.305,0,0,0,1.863-1.409,3.117,3.117,0,0,0,1.05-1.993,2.678,2.678,0,0,0-.727-1.843A4.729,4.729,0,0,0,224.642,60.777Zm74.369-1.888,0.031-1.8H249.984V55.3a13.42,13.42,0,0,0-.325-2.773,12.074,12.074,0,0,0-3.223-6.1h-3.149l0.93,1.065a13.26,13.26,0,0,1,2.618,4.5,10.355,10.355,0,0,1,.6,3.343v1.763H208.154V53.939l-2.661-1.867v5.019H172.935v1.8h3.03v3.877l-0.074.09q-0.369.331-.562,0.5v1.111q0.843-.3,1.731-0.674a11.65,11.65,0,0,1,4.361-.884,3.806,3.806,0,0,1,1.679.254,3.683,3.683,0,0,1,1.264,1.124v1.379a5.431,5.431,0,0,0-3.4-.989,7.875,7.875,0,0,0-5.841,2.382,3.566,3.566,0,0,0-1.212,2.472,3.02,3.02,0,0,0,.768,2.007,5.58,5.58,0,0,0,4.5,1.857,8.511,8.511,0,0,0,3.711-.763q0.5-.239,1.286-0.7a0.73,0.73,0,0,1,.193.614q2.041,0.854,2.351.974V67.743q0-3.821-.636-5.079-0.947-1.888-4.273-1.888a8.883,8.883,0,0,0-1.611.15,18.957,18.957,0,0,0-2.141.453,0.152,0.152,0,0,1-.033-0.019,0.171,0.171,0,0,0-.119-0.06V58.888h21.322V61.45a16.72,16.72,0,0,0-4.022-.7,10.675,10.675,0,0,0-2.646.36q-3.432.884-3.417,3.416a4.043,4.043,0,0,0,.739,2.322,4.539,4.539,0,0,0,3.876,2.247,12.665,12.665,0,0,0,2.159-.48,23.657,23.657,0,0,1,3.532-.809q1.774,0,1.776,1.139a1.514,1.514,0,0,1-.962,1.289,8.629,8.629,0,0,1-4.215,1.079,6.833,6.833,0,0,1-2.86-.862,7.141,7.141,0,0,0-2.285-.861,1.219,1.219,0,0,0-1.478,1.259,1.809,1.809,0,0,0,.931,1.6,8.391,8.391,0,0,0,4.215,1,2.011,2.011,0,0,1,1.109,1.2,9.753,9.753,0,0,0,1.212,1.812,2.66,2.66,0,0,0,1.951.794,3.013,3.013,0,0,0,1.877-.4l-1.492-2.471a2.786,2.786,0,0,1-.667.09,2.986,2.986,0,0,1-2.025-1.08,6.614,6.614,0,0,0,2.336-.643q2.957-1.364,2.958-3.746a2.816,2.816,0,0,0-.6-1.8,4.552,4.552,0,0,0-3.816-1.6,6.343,6.343,0,0,0-1.834.18q-1.227.434-2.011,0.719a5.964,5.964,0,0,1-1.965.449,1.079,1.079,0,0,1-1.243-1.2,1.646,1.646,0,0,1,1.035-1.453,9.6,9.6,0,0,1,4.54-.974,11.944,11.944,0,0,1,2.661.36,8.826,8.826,0,0,1,2.513.9V58.888h4.392V69.822a3.15,3.15,0,0,0,.5,1.65,3.62,3.62,0,0,0,3.224,1.919q3.563,0.016,5.264-3.805l-2.972-1.723q0,4.615-2.2,4.614a0.978,0.978,0,0,1-.827-0.525,1.743,1.743,0,0,1-.326-0.99V58.888h31.7V61.27c0,0.081-.029.121-0.089,0.121a12.759,12.759,0,0,0-3.06-.555,5.468,5.468,0,0,0-3.209.929,7.287,7.287,0,0,0-1.893,1.962,4.632,4.632,0,0,0-.873,2.547,6.493,6.493,0,0,0,2.692,4.944,7.853,7.853,0,0,0,5,2.172,6.319,6.319,0,0,0,3.092-.779,5.43,5.43,0,0,0,3-5.085,4.934,4.934,0,0,0-.9-3.179,7.087,7.087,0,0,1-1.183-1.335V58.888h5.011v13.6a14.3,14.3,0,0,1,1.391.689l0.768,0.406a2.7,2.7,0,0,0,.385.165V58.888h11.68V61.27c0,0.081-.029.121-0.089,0.121a12.759,12.759,0,0,0-3.06-.555,5.468,5.468,0,0,0-3.209.929,7.287,7.287,0,0,0-1.893,1.962,4.632,4.632,0,0,0-.873,2.547,6.493,6.493,0,0,0,2.692,4.944,7.855,7.855,0,0,0,5,2.172,6.319,6.319,0,0,0,3.092-.779,5.429,5.429,0,0,0,3-5.085,4.934,4.934,0,0,0-.9-3.179,7.087,7.087,0,0,1-1.183-1.335V58.888H274.75v1.665a0.309,0.309,0,0,1-.223.27q-5.544,0-5.544,3.45a3.211,3.211,0,0,0,.607,1.875l0.724,1.034-0.03.166a3.052,3.052,0,0,0-1.612.689,1.848,1.848,0,0,0-.873,1.455q0,1.439,2.307,3.1a3.471,3.471,0,0,0,1.894.794,10.232,10.232,0,0,0,3.5-1.086,10.237,10.237,0,0,1,3.5-1.087,2.371,2.371,0,0,1,1.863.8,2.888,2.888,0,0,1,.71,1.985,2.391,2.391,0,0,1-.5,1.379,3.618,3.618,0,0,1-3.1,1.633A4.648,4.648,0,0,1,275.711,76a22.266,22.266,0,0,0-2.336-1.468,6.357,6.357,0,0,0-2.678-.524,6.678,6.678,0,0,0-3.976,1.243,8.982,8.982,0,0,0-2.53,2.757,6.94,6.94,0,0,0-1.064,3.581,3.457,3.457,0,0,0,.06.763,10.863,10.863,0,0,1,9.241-6.171,9.709,9.709,0,0,1,4.17,1.258,8.535,8.535,0,0,0,3.429,1.139,3.38,3.38,0,0,0,1.226-.212c0,0.032-.014.061-0.014,0.093a3.635,3.635,0,0,0,.916,2.052q2.264,2.952,7.615,2.951a9.423,9.423,0,0,0,5.516-1.633,5.357,5.357,0,0,0,2.544-4.569V61.915l-3.063-1.079v5.648a4.774,4.774,0,0,1-.753,2.457,6.188,6.188,0,0,1-1.76,1.9,3.771,3.771,0,0,1-2.4.795,3.353,3.353,0,0,1-2.631-1.065,4.76,4.76,0,0,1-.667-2.835v-8.85h12.45ZM182.382,70.245a9.442,9.442,0,0,1-5.026,1.394q-2.13,0-2.44-1.094a2.648,2.648,0,0,1,.755-1.5,6.148,6.148,0,0,1,5-2.277,6.976,6.976,0,0,1,2.145.435q1.55,0.525,1.551,1.184T182.382,70.245ZM240,69.973a6.584,6.584,0,0,1-4.022,1.8,2.978,2.978,0,0,1-1.465-.405,2.642,2.642,0,0,1-1.595-2.31,6.064,6.064,0,0,1,2.468-4.968,6.556,6.556,0,0,1,3.947-1.666,3.271,3.271,0,0,1,1.169.27,2.77,2.77,0,0,1,1.834,2.837A5.647,5.647,0,0,1,240,69.973Zm21.808,0a6.584,6.584,0,0,1-4.021,1.8,2.979,2.979,0,0,1-1.466-.405,2.642,2.642,0,0,1-1.595-2.31A6.064,6.064,0,0,1,257.2,64.09a6.556,6.556,0,0,1,3.948-1.666,3.271,3.271,0,0,1,1.168.27,2.77,2.77,0,0,1,1.834,2.837A5.647,5.647,0,0,1,261.812,69.973Zm10.305-6.935a4.607,4.607,0,0,1,2.913-1.093,1.645,1.645,0,0,1,1.907,1.812,3.11,3.11,0,0,1-.753,2.053,6.029,6.029,0,0,1-1.568,1.288,3.717,3.717,0,0,1-1.908.614,2.059,2.059,0,0,1-1.442-.584,1.853,1.853,0,0,1-.627-1.409A3.378,3.378,0,0,1,272.117,63.039Zm17.8,9.274q4.172,0,5.131-1.588v6.1a4.664,4.664,0,0,1-.975,2.936,7.239,7.239,0,0,1-6.092,2.651,5.763,5.763,0,0,1-2.87-.63,3.435,3.435,0,0,1-2.025-2.411,1.8,1.8,0,0,1,1.315-1.543,13.2,13.2,0,0,1,4.555-1.095l-1.877-2.546a7.083,7.083,0,0,0-3.771,1.124,5.873,5.873,0,0,0-.62.466,12.376,12.376,0,0,0-.341-2.353,7.4,7.4,0,0,0-1.255-2.937,3.142,3.142,0,0,0-2.661-1.423,11.545,11.545,0,0,0-4.555,1.423,9.6,9.6,0,0,1-3.238,1.184,1.415,1.415,0,0,1-.887-0.337,1.023,1.023,0,0,1-.444-0.786,1.426,1.426,0,0,1,.414-0.854q1.078-1.333,4.036-1.334a8.919,8.919,0,0,0,3.4-.48,2.715,2.715,0,0,0,1.626-2.741,3.112,3.112,0,0,0-.1-0.869,4,4,0,0,0-.251-0.465,1.081,1.081,0,0,1-.194-0.539,0.522,0.522,0,0,1,.282-0.39,0.9,0.9,0,0,1,.488-0.194,1.033,1.033,0,0,1,.887.763,3.5,3.5,0,0,1,.28,1.259l1.554-1.8a2.663,2.663,0,0,0-.5-0.989,2.321,2.321,0,0,0-1.775-1.079,1.353,1.353,0,0,0-.8.3l-0.569.683a1.026,1.026,0,0,1-.635.469,0.84,0.84,0,0,1-.4-0.872V58.888h6.668v8.295a4.4,4.4,0,0,0,.887,2.7A6.2,6.2,0,0,0,289.918,72.313Z" transform="translate(-150.938 -36)"/>
  <path class="cls-1" d="M150.953,64.9l10.942,6.02V60.082Zm4.863-18.061L161.9,57.674l6.079-8.428ZM171.622,36l-1.216,12.041,9.726-3.612Zm12.158,7.225,10.942,4.816V36Zm-23.1,30.1-4.863,10.837,12.158-2.408Zm9.727,9.633L171.622,95l8.51-8.428Zm13.374,3.612L193.506,95l1.216-13.245Z" transform="translate(-150.938 -36)"/>
  <path class="cls-1" d="M182.031,82.056a16.556,16.556,0,1,1,12.894-27.084V52.331a18.362,18.362,0,1,0,0,26.338V76.028A16.757,16.757,0,0,1,182.031,82.056Z" transform="translate(-150.938 -36)"/>
</svg>
